<svg xmlns="http://www.w3.org/2000/svg" xmlns:xlink="http://www.w3.org/1999/xlink" class="img-responsive" id="state_machine-pull_request" width="1029pt" height="404pt" viewBox="0.00 0.00 1029.00 404.00">
<g id="graph0" class="graph" transform="scale(1 1) rotate(0) translate(4 400)">
<title>workflow</title>
<polygon fill="#ffffff" stroke="transparent" points="-4,4 -4,-400 1025,-400 1025,4 -4,4"/>
<!-- place_590abaace41bdb1047b7713b47b0a4c3489ca80f -->
<g id="node1" class="node">
<title>place_590abaace41bdb1047b7713b47b0a4c3489ca80f</title>
<ellipse fill="#add8e6" stroke="#333333" cx="57.5" cy="-195.5" rx="57.5" ry="57.5"/>
<text text-anchor="middle" x="57.5" y="-193.3" font-family="Arial" font-size="9.00" fill="#000000">opened</text>
</g>
<!-- transition_b6589fc6ab0dc82cf12099d1c2d40ab994e8410c -->
<g id="node6" class="node">
<title>transition_b6589fc6ab0dc82cf12099d1c2d40ab994e8410c</title>
<polygon fill="none" stroke="#333333" points="266,-253 151,-253 151,-138 266,-138 266,-253"/>
<text text-anchor="middle" x="208.5" y="-193.3" font-family="Arial" font-size="9.00" fill="#000000">feedback</text>
</g>
<!-- place_590abaace41bdb1047b7713b47b0a4c3489ca80f&#45;&gt;transition_b6589fc6ab0dc82cf12099d1c2d40ab994e8410c -->
<g id="edge1" class="edge">
<title>place_590abaace41bdb1047b7713b47b0a4c3489ca80f-&gt;transition_b6589fc6ab0dc82cf12099d1c2d40ab994e8410c</title>
<path fill="none" stroke="#333333" d="M115.0174,-195.5C125.0246,-195.5 135.4794,-195.5 145.6214,-195.5"/>
<polygon fill="#333333" stroke="#333333" points="145.8926,-197.2501 150.8925,-195.5 145.8925,-193.7501 145.8926,-197.2501"/>
</g>
<!-- transition_356a192b7913b04c54574d18c28d46e6395428ab -->
<g id="node7" class="node">
<title>transition_356a192b7913b04c54574d18c28d46e6395428ab</title>
<polygon fill="none" stroke="#333333" points="568,-115 453,-115 453,0 568,0 568,-115"/>
<text text-anchor="middle" x="510.5" y="-55.3" font-family="Arial" font-size="9.00" fill="#000000">review</text>
</g>
<!-- place_590abaace41bdb1047b7713b47b0a4c3489ca80f&#45;&gt;transition_356a192b7913b04c54574d18c28d46e6395428ab -->
<g id="edge3" class="edge">
<title>place_590abaace41bdb1047b7713b47b0a4c3489ca80f-&gt;transition_356a192b7913b04c54574d18c28d46e6395428ab</title>
<path fill="none" stroke="#333333" d="M101.7418,-157.9219C116.5894,-146.9682 133.7719,-135.9546 151,-128.5 249.3573,-85.9406 373.9367,-68.6486 447.6383,-61.799"/>
<polygon fill="#333333" stroke="#333333" points="448.0353,-63.5202 452.8559,-61.3237 447.7177,-60.0346 448.0353,-63.5202"/>
</g>
<!-- transition_1b6453892473a467d07372d45eb05abc2031647a -->
<g id="node10" class="node">
<title>transition_1b6453892473a467d07372d45eb05abc2031647a</title>
<polygon fill="none" stroke="#333333" points="417,-396 302,-396 302,-281 417,-281 417,-396"/>
<text text-anchor="middle" x="359.5" y="-336.3" font-family="Arial" font-size="9.00" fill="#000000">close</text>
</g>
<!-- place_590abaace41bdb1047b7713b47b0a4c3489ca80f&#45;&gt;transition_1b6453892473a467d07372d45eb05abc2031647a -->
<g id="edge9" class="edge">
<title>place_590abaace41bdb1047b7713b47b0a4c3489ca80f-&gt;transition_1b6453892473a467d07372d45eb05abc2031647a</title>
<path fill="none" stroke="#333333" d="M103.0564,-231.2358C117.8344,-241.8356 134.6458,-252.898 151,-261.5 197.8599,-286.1474 254.3851,-306.4941 296.7529,-320.0695"/>
<polygon fill="#333333" stroke="#333333" points="296.2917,-321.7592 301.587,-321.6088 297.3537,-318.4242 296.2917,-321.7592"/>
</g>
<!-- place_ea88fbaa99b73225752e2ef67593f775848160ad -->
<g id="node2" class="node">
<title>place_ea88fbaa99b73225752e2ef67593f775848160ad</title>
<ellipse fill="none" stroke="#333333" cx="963.5" cy="-296.5" rx="57.5" ry="57.5"/>
<text text-anchor="middle" x="963.5" y="-294.3" font-family="Arial" font-size="9.00" fill="#000000">closed</text>
</g>
<!-- place_d46a54d4b5cad2f47a2bd2a0b318a647840efe17 -->
<g id="node3" class="node">
<title>place_d46a54d4b5cad2f47a2bd2a0b318a647840efe17</title>
<ellipse fill="none" stroke="#333333" cx="359.5" cy="-195.5" rx="57.5" ry="57.5"/>
<text text-anchor="middle" x="359.5" y="-193.3" font-family="Arial" font-size="9.00" fill="#000000">needs_review</text>
</g>
<!-- transition_da4b9237bacccdf19c0760cab7aec4a8359010b0 -->
<g id="node8" class="node">
<title>transition_da4b9237bacccdf19c0760cab7aec4a8359010b0</title>
<polygon fill="none" stroke="#333333" points="568,-248 453,-248 453,-133 568,-133 568,-248"/>
<text text-anchor="middle" x="510.5" y="-188.3" font-family="Arial" font-size="9.00" fill="#000000">review</text>
</g>
<!-- place_d46a54d4b5cad2f47a2bd2a0b318a647840efe17&#45;&gt;transition_da4b9237bacccdf19c0760cab7aec4a8359010b0 -->
<g id="edge5" class="edge">
<title>place_d46a54d4b5cad2f47a2bd2a0b318a647840efe17-&gt;transition_da4b9237bacccdf19c0760cab7aec4a8359010b0</title>
<path fill="none" stroke="#333333" d="M417.0174,-193.5955C427.0246,-193.2641 437.4794,-192.9179 447.6214,-192.5821"/>
<polygon fill="#333333" stroke="#333333" points="447.9532,-194.3221 452.8925,-192.4075 447.8373,-190.8241 447.9532,-194.3221"/>
</g>
<!-- transition_ac3478d69a3c81fa62e60f5c3696165a4e5e6ac4 -->
<g id="node11" class="node">
<title>transition_ac3478d69a3c81fa62e60f5c3696165a4e5e6ac4</title>
<polygon fill="none" stroke="#333333" points="719,-329 604,-329 604,-214 719,-214 719,-329"/>
<text text-anchor="middle" x="661.5" y="-269.3" font-family="Arial" font-size="9.00" fill="#000000">close</text>
</g>
<!-- place_d46a54d4b5cad2f47a2bd2a0b318a647840efe17&#45;&gt;transition_ac3478d69a3c81fa62e60f5c3696165a4e5e6ac4 -->
<g id="edge11" class="edge">
<title>place_d46a54d4b5cad2f47a2bd2a0b318a647840efe17-&gt;transition_ac3478d69a3c81fa62e60f5c3696165a4e5e6ac4</title>
<path fill="none" stroke="#333333" d="M404.6477,-231.5191C419.2738,-241.3281 436.1019,-250.8073 453,-256.5 500.0946,-272.3654 556.4626,-275.5498 598.7089,-275.0799"/>
<polygon fill="#333333" stroke="#333333" points="598.8157,-276.8287 603.7893,-275.0051 598.7641,-273.329 598.8157,-276.8287"/>
</g>
<!-- place_b56f08775db75495b47fcebe192b46a1ddbf6416 -->
<g id="node4" class="node">
<title>place_b56f08775db75495b47fcebe192b46a1ddbf6416</title>
<ellipse fill="none" stroke="#333333" cx="661.5" cy="-96.5" rx="57.5" ry="57.5"/>
<text text-anchor="middle" x="661.5" y="-94.3" font-family="Arial" font-size="9.00" fill="#000000">reviewed</text>
</g>
<!-- transition_77de68daecd823babbb58edb1c8e14d7106e83bb -->
<g id="node9" class="node">
<title>transition_77de68daecd823babbb58edb1c8e14d7106e83bb</title>
<polygon fill="none" stroke="#333333" points="870,-135 755,-135 755,-20 870,-20 870,-135"/>
<text text-anchor="middle" x="812.5" y="-75.3" font-family="Arial" font-size="9.00" fill="#000000">merge</text>
</g>
<!-- place_b56f08775db75495b47fcebe192b46a1ddbf6416&#45;&gt;transition_77de68daecd823babbb58edb1c8e14d7106e83bb -->
<g id="edge7" class="edge">
<title>place_b56f08775db75495b47fcebe192b46a1ddbf6416-&gt;transition_77de68daecd823babbb58edb1c8e14d7106e83bb</title>
<path fill="none" stroke="#333333" d="M718.5866,-89.3169C728.7783,-88.0345 739.4467,-86.6921 749.7856,-85.3912"/>
<polygon fill="#333333" stroke="#333333" points="750.0887,-87.117 754.831,-84.7564 749.6517,-83.6444 750.0887,-87.117"/>
</g>
<!-- transition_c1dfd96eea8cc2b62785275bca38ac261256e278 -->
<g id="node12" class="node">
<title>transition_c1dfd96eea8cc2b62785275bca38ac261256e278</title>
<polygon fill="none" stroke="#333333" points="870,-268 755,-268 755,-153 870,-153 870,-268"/>
<text text-anchor="middle" x="812.5" y="-208.3" font-family="Arial" font-size="9.00" fill="#000000">close</text>
</g>
<!-- place_b56f08775db75495b47fcebe192b46a1ddbf6416&#45;&gt;transition_c1dfd96eea8cc2b62785275bca38ac261256e278 -->
<g id="edge13" class="edge">
<title>place_b56f08775db75495b47fcebe192b46a1ddbf6416-&gt;transition_c1dfd96eea8cc2b62785275bca38ac261256e278</title>
<path fill="none" stroke="#333333" d="M707.6255,-131.3232C721.2612,-141.6177 736.4115,-153.0557 750.8604,-163.9641"/>
<polygon fill="#333333" stroke="#333333" points="749.8703,-165.4094 754.9153,-167.0254 751.9792,-162.6161 749.8703,-165.4094"/>
</g>
<!-- place_e8e2ace14fcedce073756444255d2cfe24f470af -->
<g id="node5" class="node">
<title>place_e8e2ace14fcedce073756444255d2cfe24f470af</title>
<ellipse fill="none" stroke="#333333" cx="963.5" cy="-77.5" rx="57.5" ry="57.5"/>
<text text-anchor="middle" x="963.5" y="-75.3" font-family="Arial" font-size="9.00" fill="#000000">merged</text>
</g>
<!-- transition_b6589fc6ab0dc82cf12099d1c2d40ab994e8410c&#45;&gt;place_d46a54d4b5cad2f47a2bd2a0b318a647840efe17 -->
<g id="edge2" class="edge">
<title>transition_b6589fc6ab0dc82cf12099d1c2d40ab994e8410c-&gt;place_d46a54d4b5cad2f47a2bd2a0b318a647840efe17</title>
<path fill="none" stroke="#333333" d="M266.0174,-195.5C276.0246,-195.5 286.4794,-195.5 296.6214,-195.5"/>
<polygon fill="#333333" stroke="#333333" points="296.8926,-197.2501 301.8925,-195.5 296.8925,-193.7501 296.8926,-197.2501"/>
</g>
<!-- transition_356a192b7913b04c54574d18c28d46e6395428ab&#45;&gt;place_b56f08775db75495b47fcebe192b46a1ddbf6416 -->
<g id="edge4" class="edge">
<title>transition_356a192b7913b04c54574d18c28d46e6395428ab-&gt;place_b56f08775db75495b47fcebe192b46a1ddbf6416</title>
<path fill="none" stroke="#333333" d="M568.0174,-72.3555C578.7142,-75.1182 589.9223,-78.013 600.7132,-80.8001"/>
<polygon fill="#333333" stroke="#333333" points="600.3598,-82.5162 605.6385,-82.0722 601.2351,-79.1274 600.3598,-82.5162"/>
</g>
<!-- transition_da4b9237bacccdf19c0760cab7aec4a8359010b0&#45;&gt;place_b56f08775db75495b47fcebe192b46a1ddbf6416 -->
<g id="edge6" class="edge">
<title>transition_da4b9237bacccdf19c0760cab7aec4a8359010b0-&gt;place_b56f08775db75495b47fcebe192b46a1ddbf6416</title>
<path fill="none" stroke="#333333" d="M568.0174,-154.6945C581.1963,-146.4904 595.1513,-137.8031 608.1461,-129.7137"/>
<polygon fill="#333333" stroke="#333333" points="609.1939,-131.1229 612.5137,-126.9948 607.3441,-128.1516 609.1939,-131.1229"/>
</g>
<!-- transition_77de68daecd823babbb58edb1c8e14d7106e83bb&#45;&gt;place_e8e2ace14fcedce073756444255d2cfe24f470af -->
<g id="edge8" class="edge">
<title>transition_77de68daecd823babbb58edb1c8e14d7106e83bb-&gt;place_e8e2ace14fcedce073756444255d2cfe24f470af</title>
<path fill="none" stroke="#333333" d="M870.0174,-77.5C880.0246,-77.5 890.4794,-77.5 900.6214,-77.5"/>
<polygon fill="#333333" stroke="#333333" points="900.8926,-79.2501 905.8925,-77.5 900.8925,-75.7501 900.8926,-79.2501"/>
</g>
<!-- transition_1b6453892473a467d07372d45eb05abc2031647a&#45;&gt;place_ea88fbaa99b73225752e2ef67593f775848160ad -->
<g id="edge10" class="edge">
<title>transition_1b6453892473a467d07372d45eb05abc2031647a-&gt;place_ea88fbaa99b73225752e2ef67593f775848160ad</title>
<path fill="none" stroke="#333333" d="M417.2217,-341.5121C488.3451,-344.53 612.8148,-347.5539 719,-338.5 781.8559,-333.1406 852.8239,-320.1651 902.0452,-310.043"/>
<polygon fill="#333333" stroke="#333333" points="902.4963,-311.7369 907.0384,-309.0106 901.7876,-308.3093 902.4963,-311.7369"/>
</g>
<!-- transition_ac3478d69a3c81fa62e60f5c3696165a4e5e6ac4&#45;&gt;place_ea88fbaa99b73225752e2ef67593f775848160ad -->
<g id="edge12" class="edge">
<title>transition_ac3478d69a3c81fa62e60f5c3696165a4e5e6ac4-&gt;place_ea88fbaa99b73225752e2ef67593f775848160ad</title>
<path fill="none" stroke="#333333" d="M719.0147,-276.2612C770.9898,-280.5637 847.3271,-286.883 900.8373,-291.3127"/>
<polygon fill="#333333" stroke="#333333" points="900.8155,-293.0668 905.9428,-291.7353 901.1043,-289.5787 900.8155,-293.0668"/>
</g>
<!-- transition_c1dfd96eea8cc2b62785275bca38ac261256e278&#45;&gt;place_ea88fbaa99b73225752e2ef67593f775848160ad -->
<g id="edge14" class="edge">
<title>transition_c1dfd96eea8cc2b62785275bca38ac261256e278-&gt;place_ea88fbaa99b73225752e2ef67593f775848160ad</title>
<path fill="none" stroke="#333333" d="M870.0174,-243.2582C882.6363,-250.4452 895.9668,-258.0374 908.4846,-265.1667"/>
<polygon fill="#333333" stroke="#333333" points="907.846,-266.8169 913.0568,-267.7708 909.5782,-263.7756 907.846,-266.8169"/>
</g>
</g>
</svg>