<svg fill="none" height="275" stroke-linecap="square" stroke-miterlimit="10" viewBox="0 0 860 275" width="860" xmlns="http://www.w3.org/2000/svg"><g fill-rule="evenodd"><path d="m500.8793 139.8723c0-67.03954 77.45825-121.38582 173.00787-121.38582s173.00787 54.34628 173.00787 121.38582c0 67.03955-77.45825 121.38583-173.00787 121.38583s-173.00787-54.34628-173.00787-121.38583z" fill="#c9daf8"/><path d="m12.879265 139.8723c0-67.03954 77.458255-121.38582 173.007865-121.38582 95.5496 0 173.00787 54.34628 173.00787 121.38582 0 67.03955-77.45828 121.38583-173.00787 121.38583-95.54962 0-173.007865-54.34628-173.007865-121.38583z" fill="#f4cccc"/><path d="m63.47769 116.12598h68.18898v68.18899h-68.18898z" fill="#900"/><path d="m145.08244 86.22047c0-18.82987 15.26462-34.09448 34.0945-34.09448 9.04242 0 17.71448 3.59208 24.10843 9.98604 6.39395 6.39395 9.98605 15.06602 9.98605 24.10844 0 18.82987-15.26462 34.0945-34.09448 34.0945-18.82988 0-34.0945-15.26463-34.0945-34.0945z" fill="#e06666"/><path d="m159.47769 198.22046 34.09448-34.09448 34.09448 34.09448-34.09448 34.09451z" fill="#600"/><path d="m233.08246 134.22046 17.04724-34.09445h34.09448l17.04724 34.09445-17.04724 34.09448h-34.09448z" fill="#c00"/><path d="m551.47766 150.22046c0-18.82986 15.26465-34.09448 34.09454-34.09448 9.04242 0 17.71448 3.5921 24.1084 9.98605 6.39398 6.39395 9.98609 15.06601 9.98609 24.10843 0 18.82987-15.26465 34.09451-34.09449 34.09451-18.82989 0-34.09454-15.26464-34.09454-34.09451z" fill="#15c"/><path d="m633.08246 86.22047 34.09448-34.09448 34.09448 34.09448-34.09448 34.0945z" fill="#6d9eeb"/><path d="m647.47766 164.12598h68.18903v68.18899h-68.18903z" fill="#a4c2f4"/><path d="m721.08246 134.22046 17.04724-34.09445h34.09448l17.04724 34.09445-17.04724 34.09448h-34.09448z" fill="#1c4587"/></g><path d="m97.57217 184.31497c0 6.96063 30.96063 13.92123 61.92126 13.92123" fill="none"/><path d="m97.57217 184.31497c0 3.48032 7.74016 6.96063 19.3504 9.57086 2.90256.65256 6.047 1.25073 9.37285 1.78095 1.6629.2651 3.3712.51318 5.11727.74261.87303.11472 1.7555.22476 2.64651.3299.4455.0525.8931.10394 1.34274.15402l.12831.0139" fill-rule="evenodd" stroke="#fff" stroke-linecap="butt" stroke-linejoin="round" stroke-width="4"/><path d="m135.1644 203.504 18.4904-5.59158-17.75867-7.60202z" fill="#fff" fill-rule="evenodd" stroke="#fff" stroke-linecap="butt" stroke-width="4"/><path d="m227.66666 198.22046c28.28348 0 56.56692-14.9606 56.56692-29.92123" fill="none"/><path d="m227.66666 198.22046c14.14175 0 28.28348-3.74014 38.88977-9.35037.6629-.35065 1.31198-.70859 1.94638-1.07337.31723-.18243.63074-.36651.94052-.5523l.0319-.0193" fill-rule="evenodd" stroke="#fff" stroke-linecap="butt" stroke-linejoin="round" stroke-width="4"/><path d="m274.68527 191.28793 5.95242-18.37741-16.37259 10.25177z" fill="#fff" fill-rule="evenodd" stroke="#fff" stroke-linecap="butt" stroke-width="4"/><path d="m179.17694 120.31497c0 10.95276 3.59842 16.42911 7.19684 21.90549 3.59843 5.47638 7.19685 10.95276 7.19685 21.90552" fill="none"/><path d="m179.17694 120.31497c0 5.47638.89961 9.58365 2.24901 13.00638.67471 1.71136 1.46187 3.25162 2.30525 4.70627.42169.72735.85742 1.43328 1.30022 2.12851.22137.34762.44453.69259.66855 1.03619l.13958.21295" fill-rule="evenodd" stroke="#fff" stroke-linecap="butt" stroke-linejoin="round" stroke-width="4"/><path d="m179.5848 143.53357 12.10216 15.05652.40735-19.31308z" fill="#fff" fill-rule="evenodd" stroke="#fff" stroke-linecap="butt" stroke-width="4"/><path d="m647.47766 198.22046c-18.89758 0-37.79523-11.95273-37.79523-23.90549" fill="none"/><path d="m647.47766 198.22046c-4.72437 0-9.44879-.74704-13.87793-2.05435-2.21454-.65369-4.35529-1.44742-6.38531-2.35788-.50751-.22763-1.00812-.46253-1.50123-.70438l-.6795-.34063" fill-rule="evenodd" stroke="#fff" stroke-linecap="butt" stroke-linejoin="round" stroke-width="4"/><path d="m630.1123 188.53717-16.68951-9.7273 6.53228 18.17939z" fill="#fff" fill-rule="evenodd" stroke="#fff" stroke-linecap="butt" stroke-width="4"/><path d="m619.6667 150.22046c25.35382 0 38.03046-4 50.70764-8 12.67712-4 25.3548-8 50.70966-8" fill="none"/><path d="m619.6667 150.22046c25.35382 0 38.03052-4 50.70764-8 6.33862-2 12.67737-4 20.60071-5.5.99042-.1875 2.00561-.36719 3.04864-.53806.52149-.0855 1.05005-.16873 1.58588-.24966.26788-.0405.53766-.0803.80933-.11963l.71154-.10065" fill-rule="evenodd" stroke="#fff" stroke-linecap="butt" stroke-linejoin="round" stroke-width="4"/><path d="m697.54114 142.3066 17.70654-7.72263-18.52801-5.46566z" fill="#fff" fill-rule="evenodd" stroke="#fff" stroke-linecap="butt" stroke-width="4"/><path d="m609.6806 126.11203c0-19.95276 11.70081-39.90552 23.40161-39.90552" fill="none"/><path d="m609.6806 126.11203c0-4.98819.73132-9.97638 2.01111-14.6528.63983-2.33823 1.41687-4.5985 2.3081-6.74187.22284-.53583.45282-1.06438.68958-1.58497.11835-.26032.2384-.51865.36017-.77492l.0982-.20241" fill-rule="evenodd" stroke="#fff" stroke-linecap="butt" stroke-linejoin="round" stroke-width="4"/><path d="m619.5382 107.0922 9.17425-16.99982-17.95514 7.12554z" fill="#fff" fill-rule="evenodd" stroke="#fff" stroke-linecap="butt" stroke-width="4"/><path d="m301.27142 134.22046c62.55118 0 93.82678 4 125.10236 8 31.2756 4 62.55121 8 125.10235 8" fill="none"/><path d="m301.2714 134.22046c62.55121 0 93.82678 4 125.10239 8 15.63779 2 31.27557 4 50.82282 5.5 9.77362.75 20.52459 1.375 32.74164 1.8125 3.05426.10937 6.20013.20703 9.44531.29202 1.62256.0425 3.26996.0818 4.94311.1178.83655.018 1.67963.0352 2.52918.0515l.62121.0112" fill-rule="evenodd" stroke="#000" stroke-linecap="butt" stroke-linejoin="round" stroke-width="4"/><path d="m527.4179 156.6122 18.21088-6.44412-18.09253-6.76923z" fill="#000" fill-rule="evenodd" stroke="#000" stroke-linecap="butt" stroke-width="4"/><path d="m203.28537 62.11203c0-17.49301 115.97638-33.73799 231.95276-34.98602 115.97641-1.24803 231.95279 12.50088 231.95279 25.00177" fill="none"/><path d="m203.28537 62.11201c0-17.493 115.97641-33.73798 231.95279-34.98601 57.98816-.62402 115.97638 2.50121 159.46747 7.34505 10.8728 1.21095 20.83954 2.52931 29.67364 3.92338 4.41706.69701 8.55103 1.41298 12.37342 2.14389 1.91125.36544 3.74463.73464 5.49658 1.10708.87598.1862 1.73163.37324 2.56653.561l.47308.10799" fill-rule="evenodd" stroke="#000" stroke-linecap="butt" stroke-linejoin="round" stroke-width="4"/><path d="m642.58734 48.34377 19.26709 1.39297-13.86407-13.45172z" fill="#000" fill-rule="evenodd" stroke="#000" stroke-linecap="butt" stroke-width="4"/><path d="m49.36483 66.72179h147.62204v43.81102h-147.62204z" fill="none"/><path d="m75.0889 98.99615q-1.9375 0-3.64062-.71875-1.6875-.73438-2.95313-2.04688-1.25-1.32812-1.96875-3.07812-.71875-1.76563-.71875-3.78125 0-1.98438.70313-3.71875.70312-1.75 1.96875-3.0625 1.28125-1.32813 2.95312-2.0625 1.6875-.75 3.65625-.75 1.82812 0 3.1875.5 1.35937.48437 2.70312 1.59375.1875.14062.26563.32812.0937.17188.0781.34375-.0156.15625-.0625.35938-.0312.35937-.3125.59375-.26562.21875-.67187.25-.39063.0156-.75-.26563-.90625-.79687-1.90625-1.20312-.98438-.40625-2.53124-.40625-1.45313 0-2.75.59375-1.28125.59375-2.25 1.64062-.96875 1.03125-1.53125 2.39063-.54688 1.34375-.54688 2.875 0 1.5625.54688 2.9375.5625 1.35937 1.53125 2.39062.96875 1.03125 2.25 1.60938 1.29687.57812 2.75.57812 1.28124 0 2.39061-.42187 1.10938-.42188 2.15625-1.1875.375-.28125.75-.25.39063.0312.67188.3125.28125.28125.28125.76562 0 .23438-.0937.4375-.0781.20313-.26563.375-1.28125 1.07813-2.76562 1.57813-1.48438.5-3.125.5zm14.95244-.14063q-1.92188 0-3.42188-.84375-1.5-.85937-2.35937-2.35937-.84375-1.5-.84375-3.4375 0-1.96875.84375-3.46875.85937-1.5 2.35937-2.34375 1.5-.85938 3.42188-.85938 1.92187 0 3.40625.85938 1.5.84375 2.35937 2.34375.85938 1.5.85938 3.46875 0 1.9375-.85938 3.4375-.84375 1.5-2.32812 2.35937-1.48438.84375-3.4375.84375zm0-1.98437q1.29687 0 2.29687-.59375 1.01563-.60938 1.59375-1.65625.57813-1.04688.57813-2.40625 0-1.375-.57813-2.42188-.57812-1.0625-1.59375-1.65625-1-.60937-2.29687-.60937-1.29688 0-2.3125.60937-1 .59375-1.57813 1.65625-.57812 1.04688-.57812 2.42188 0 1.35937.57812 2.40625.57813 1.04687 1.57813 1.65625 1.01562.59375 2.3125.59375zm21.41145 1.92187q-.48438 0-.8125-.32812-.3125-.32813-.3125-.8125v-6.01563q0-1.39062-.51563-2.28125-.51562-.90625-1.42187-1.34375-.89063-.45312-2.03125-.45312-1.07813 0-1.9375.4375-.84375.42187-1.34375 1.14062-.5.71875-.5 1.64063h-1.46875q.0156-1.51563.76562-2.70313.75-1.1875 2.01563-1.875 1.28125-.6875 2.85937-.6875 1.65625 0 2.96875.71875 1.32813.70313 2.09375 2.07813.76563 1.35937.76563 3.32812v6.01563q0 .48437-.32813.8125-.3125.32812-.79687.32812zm-10.01563 0q-.5 0-.8125-.32812-.3125-.32813-.3125-.8125v-10.89063q0-.5.3125-.8125.3125-.3125.8125-.3125.51563 0 .82813.3125.3125.3125.3125.8125v10.89063q0 .48437-.3125.8125-.3125.32812-.82813.32812zm0-5q-.5 0-.8125-.3125-.3125-.32812-.3125-.8125v-11.51562q0-.51563.3125-.82813.3125-.3125.8125-.3125.51563 0 .82813.3125.3125.3125.3125.82813v11.51562q0 .48438-.3125.8125-.3125.3125-.82813.3125zm21.3127 5.0625q-1.96875 0-3.5-.84375-1.53125-.85937-2.40625-2.35937-.85937-1.5-.85937-3.4375 0-1.96875.8125-3.46875.82812-1.5 2.28125-2.34375 1.45312-.85938 3.3125-.85938 1.85937 0 3.20312.82813 1.35938.82812 2.07813 2.28125.71875 1.45312.71875 3.34375 0 .42187-.29688.70312-.28125.28125-.73437.28125h-9.82813v-1.79687h9.85938l-1.01563.6875q0-1.26563-.48437-2.26563-.46875-1-1.35938-1.5625-.89062-.57812-2.14062-.57812-1.35938 0-2.35938.60937-1 .60938-1.51562 1.6875-.51563 1.07813-.51563 2.45313 0 1.35937.60938 2.4375.625 1.0625 1.6875 1.67187 1.0625.60938 2.45312.60938.79688 0 1.59375-.28125.8125-.29688 1.3125-.67188.34375-.25.71875-.25.39063-.0156.67188.21875.39062.34375.40625.73438.0312.39062-.35938.6875-.78125.64062-2.01562 1.0625-1.21875.42187-2.32813.42187zm-.95312-15.26562q-.46875 0-.79688-.3125-.32812-.32813-.32812-.8125 0-.45313.26562-.75l2.46875-2.46875q.34375-.32813.79688-.32813.5 0 .8125.34375.3125.32813.3125.79688 0 .21875-.0625.42187-.0469.20313-.25.35938l-2.4375 2.4375q-.29688.3125-.78125.3125zm14.41845 15.26562q-1.57812 0-3-.5-1.40625-.5-2.23437-1.34375-.32813-.35937-.26563-.79687.0625-.45313.4375-.73438.4375-.34375.85938-.29687.4375.0469.73437.39062.46875.53125 1.375.92188.92188.375 2.04688.375 1.51562 0 2.26562-.5.76563-.51563.78125-1.28125 0-.76563-.75-1.29688-.73437-.54687-2.60937-.89062-2.42188-.45313-3.53125-1.40625-1.09375-.96875-1.09375-2.32813 0-1.23437.6875-2.03125.70312-.8125 1.8125-1.20312 1.125-.39063 2.375-.39063 1.57812 0 2.78125.51563 1.21875.51562 1.9375 1.42187.29687.35938.26562.75-.0156.375-.40625.64063-.34375.25-.82812.17187-.46875-.0937-.79688-.40625-.60937-.625-1.32812-.875-.71875-.25-1.67188-.25-1.15625 0-1.90625.42188-.73437.40625-.73437 1.15625 0 .45312.25.82812.25.375.92187.67188.6875.28125 2.01563.51562 1.79687.34375 2.84375.90625 1.04687.5625 1.48437 1.29688.45313.71875.45313 1.65625 0 1.14062-.625 2.01562-.60938.875-1.75 1.375-1.14063.5-2.79688.5zm9.72672-.0937q-.5 0-.8125-.3125-.3125-.3125-.3125-.8125v-10.875q0-.5.3125-.8125.3125-.3125.8125-.3125.5 0 .8125.3125.3125.3125.3125.8125v10.875q0 .5-.3125.8125-.3125.3125-.8125.3125zm.17187-15.39062q-.60937 0-1.0625-.4375-.4375-.4375-.4375-1.04688 0-.64062.4375-1.0625.45313-.42187 1.0625-.42187.59375 0 1.03125.42187.45313.42188.45313 1.0625 0 .60938-.4375 1.04688-.42188.4375-1.04688.4375zm11.51136 15.48437q-1.92188 0-3.42188-.84375-1.5-.85937-2.35937-2.35937-.84375-1.5-.84375-3.4375 0-1.96875.84375-3.46875.85937-1.5 2.35937-2.34375 1.5-.85938 3.42188-.85938 1.92187 0 3.40625.85938 1.5.84375 2.35937 2.34375.85938 1.5.85938 3.46875 0 1.9375-.85938 3.4375-.84375 1.5-2.32812 2.35937-1.48438.84375-3.4375.84375zm0-1.98437q1.29687 0 2.29687-.59375 1.01563-.60938 1.59375-1.65625.57813-1.04688.57813-2.40625 0-1.375-.57813-2.42188-.57812-1.0625-1.59375-1.65625-1-.60937-2.29687-.60937-1.29688 0-2.3125.60937-1 .59375-1.57813 1.65625-.57812 1.04688-.57812 2.42188 0 1.35937.57812 2.40625.57813 1.04687 1.57813 1.65625 1.01562.59375 2.3125.59375zm21.41145 1.92187q-.48438 0-.8125-.32812-.3125-.32813-.3125-.8125v-6.01563q0-1.39062-.51563-2.28125-.51562-.90625-1.42187-1.34375-.89063-.45312-2.03125-.45312-1.07813 0-1.9375.4375-.84375.42187-1.34375 1.14062-.5.71875-.5 1.64063h-1.46875q.0156-1.51563.76562-2.70313.75-1.1875 2.01563-1.875 1.28125-.6875 2.85937-.6875 1.65625 0 2.96875.71875 1.32813.70313 2.09375 2.07813.76563 1.35937.76563 3.32812v6.01563q0 .48437-.32813.8125-.3125.32812-.79687.32812zm-10.01563 0q-.5 0-.8125-.32812-.3125-.32813-.3125-.8125v-10.89063q0-.5.3125-.8125.3125-.3125.8125-.3125.51563 0 .82813.3125.3125.3125.3125.8125v10.89063q0 .48437-.3125.8125-.3125.32812-.82813.32812z" fill="#fff"/><path d="m657.3648 178.72177h147.62207v43.81103h-147.62207z" fill="none"/><path d="m683.0889 210.99615q-1.9375 0-3.64063-.71875-1.6875-.73438-2.95312-2.04688-1.25-1.32812-1.96875-3.07812-.71875-1.76563-.71875-3.78125 0-1.98438.70312-3.71875.70313-1.75 1.96875-3.0625 1.28125-1.32813 2.95313-2.0625 1.6875-.75 3.65625-.75 1.82812 0 3.1875.5 1.35937.48437 2.70312 1.59375.1875.14062.26563.32812.0937.17188.0781.34375-.0156.15625-.0625.35938-.0312.35937-.3125.59375-.26562.21875-.67187.25-.39063.0156-.75-.26563-.90625-.79687-1.90625-1.20312-.98438-.40625-2.53125-.40625-1.45313 0-2.75.59375-1.28125.59375-2.25 1.64062-.96875 1.03125-1.53125 2.39063-.54688 1.34375-.54688 2.875 0 1.5625.54688 2.9375.5625 1.35937 1.53125 2.39062.96875 1.03125 2.25 1.60938 1.29687.57812 2.75.57812 1.28125 0 2.39062-.42187 1.10938-.42188 2.15625-1.1875.375-.28125.75-.25.39063.0312.67188.3125.28125.28125.28125.76562 0 .23438-.0937.4375-.0781.20313-.26563.375-1.28125 1.07813-2.76562 1.57813-1.48438.5-3.125.5zm14.95239-.14063q-1.92187 0-3.42187-.84375-1.5-.85937-2.35938-2.35937-.84375-1.5-.84375-3.4375 0-1.96875.84375-3.46875.85938-1.5 2.35938-2.34375 1.5-.85938 3.42187-.85938 1.92188 0 3.40625.85938 1.5.84375 2.35938 2.34375.85937 1.5.85937 3.46875 0 1.9375-.85937 3.4375-.84375 1.5-2.32813 2.35937-1.48437.84375-3.4375.84375zm0-1.98437q1.29688 0 2.29688-.59375 1.01562-.60938 1.59375-1.65625.57812-1.04688.57812-2.40625 0-1.375-.57812-2.42188-.57813-1.0625-1.59375-1.65625-1-.60937-2.29688-.60937-1.29687 0-2.3125.60937-1 .59375-1.57812 1.65625-.57813 1.04688-.57813 2.42188 0 1.35937.57813 2.40625.57812 1.04687 1.57812 1.65625 1.01563.59375 2.3125.59375zm21.4115 1.92187q-.48437 0-.8125-.32812-.3125-.32813-.3125-.8125v-6.01563q0-1.39062-.51562-2.28125-.51563-.90625-1.42188-1.34375-.89062-.45312-2.03125-.45312-1.07812 0-1.9375.4375-.84375.42187-1.34375 1.14062-.5.71875-.5 1.64063h-1.46875q.0156-1.51563.76563-2.70313.75-1.1875 2.01562-1.875 1.28125-.6875 2.85938-.6875 1.65625 0 2.96875.71875 1.32812.70313 2.09375 2.07813.76562 1.35937.76562 3.32812v6.01563q0 .48437-.32812.8125-.3125.32812-.79688.32812zm-10.01562 0q-.5 0-.8125-.32812-.3125-.32813-.3125-.8125v-10.89063q0-.5.3125-.8125.3125-.3125.8125-.3125.51562 0 .82812.3125.3125.3125.3125.8125v10.89063q0 .48437-.3125.8125-.3125.32812-.82812.32812zm0-5q-.5 0-.8125-.3125-.3125-.32812-.3125-.8125v-11.51562q0-.51563.3125-.82813.3125-.3125.8125-.3125.51562 0 .82812.3125.3125.3125.3125.82813v11.51562q0 .48438-.3125.8125-.3125.3125-.82812.3125zm21.31268 5.0625q-1.96875 0-3.5-.84375-1.53125-.85937-2.40625-2.35937-.85937-1.5-.85937-3.4375 0-1.96875.8125-3.46875.82812-1.5 2.28125-2.34375 1.45312-.85938 3.3125-.85938 1.85937 0 3.20312.82813 1.35938.82812 2.07813 2.28125.71875 1.45312.71875 3.34375 0 .42187-.29688.70312-.28125.28125-.73437.28125h-9.82813v-1.79687h9.85938l-1.01563.6875q0-1.26563-.48437-2.26563-.46875-1-1.35938-1.5625-.89062-.57812-2.14062-.57812-1.35938 0-2.35938.60937-1 .60938-1.51562 1.6875-.51563 1.07813-.51563 2.45313 0 1.35937.60938 2.4375.625 1.0625 1.6875 1.67187 1.0625.60938 2.45312.60938.79688 0 1.59375-.28125.8125-.29688 1.3125-.67188.34375-.25.71875-.25.39063-.0156.67188.21875.39062.34375.40625.73438.0312.39062-.35938.6875-.78125.64062-2.01562 1.0625-1.21875.42187-2.32813.42187zm-.95312-15.26562q-.46875 0-.79688-.3125-.32812-.32813-.32812-.8125 0-.45313.26562-.75l2.46875-2.46875q.34375-.32813.79688-.32813.5 0 .8125.34375.3125.32813.3125.79688 0 .21875-.0625.42187-.0469.20313-.25.35938l-2.4375 2.4375q-.29688.3125-.78125.3125zm14.41845 15.26562q-1.57812 0-3-.5-1.40625-.5-2.23437-1.34375-.32813-.35937-.26563-.79687.0625-.45313.4375-.73438.4375-.34375.85938-.29687.4375.0469.73437.39062.46875.53125 1.375.92188.92188.375 2.04688.375 1.51562 0 2.26562-.5.76563-.51563.78125-1.28125 0-.76563-.75-1.29688-.73437-.54687-2.60937-.89062-2.42188-.45313-3.53125-1.40625-1.09375-.96875-1.09375-2.32813 0-1.23437.6875-2.03125.70312-.8125 1.8125-1.20312 1.125-.39063 2.375-.39063 1.57812 0 2.78125.51563 1.21875.51562 1.9375 1.42187.29687.35938.26562.75-.0156.375-.40625.64063-.34375.25-.82812.17187-.46875-.0937-.79688-.40625-.60937-.625-1.32812-.875-.71875-.25-1.67188-.25-1.15625 0-1.90625.42188-.73437.40625-.73437 1.15625 0 .45312.25.82812.25.375.92187.67188.6875.28125 2.01563.51562 1.79687.34375 2.84375.90625 1.04687.5625 1.48437 1.29688.45313.71875.45313 1.65625 0 1.14062-.625 2.01562-.60938.875-1.75 1.375-1.14063.5-2.79688.5zm9.72669-.0937q-.5 0-.8125-.3125-.3125-.3125-.3125-.8125v-10.875q0-.5.3125-.8125.3125-.3125.8125-.3125.5 0 .8125.3125.3125.3125.3125.8125v10.875q0 .5-.3125.8125-.3125.3125-.8125.3125zm.17187-15.39062q-.60937 0-1.0625-.4375-.4375-.4375-.4375-1.04688 0-.64062.4375-1.0625.45313-.42187 1.0625-.42187.59375 0 1.03125.42187.45313.42188.45313 1.0625 0 .60938-.4375 1.04688-.42188.4375-1.04688.4375zm11.51135 15.48437q-1.92187 0-3.42187-.84375-1.5-.85937-2.35938-2.35937-.84375-1.5-.84375-3.4375 0-1.96875.84375-3.46875.85938-1.5 2.35938-2.34375 1.5-.85938 3.42187-.85938 1.92188 0 3.40625.85938 1.5.84375 2.35938 2.34375.85937 1.5.85937 3.46875 0 1.9375-.85937 3.4375-.84375 1.5-2.32813 2.35937-1.48437.84375-3.4375.84375zm0-1.98437q1.29688 0 2.29688-.59375 1.01562-.60938 1.59375-1.65625.57812-1.04688.57812-2.40625 0-1.375-.57812-2.42188-.57813-1.0625-1.59375-1.65625-1-.60937-2.29688-.60937-1.29687 0-2.3125.60937-1 .59375-1.57812 1.65625-.57813 1.04688-.57813 2.42188 0 1.35937.57813 2.40625.57812 1.04687 1.57812 1.65625 1.01563.59375 2.3125.59375zm21.4115 1.92187q-.48437 0-.8125-.32812-.3125-.32813-.3125-.8125v-6.01563q0-1.39062-.51562-2.28125-.51563-.90625-1.42188-1.34375-.89062-.45312-2.03125-.45312-1.07812 0-1.9375.4375-.84375.42187-1.34375 1.14062-.5.71875-.5 1.64063h-1.46875q.0156-1.51563.76563-2.70313.75-1.1875 2.01562-1.875 1.28125-.6875 2.85938-.6875 1.65625 0 2.96875.71875 1.32812.70313 2.09375 2.07813.76562 1.35937.76562 3.32812v6.01563q0 .48437-.32812.8125-.3125.32812-.79688.32812zm-10.01562 0q-.5 0-.8125-.32812-.3125-.32813-.3125-.8125v-10.89063q0-.5.3125-.8125.3125-.3125.8125-.3125.51562 0 .82812.3125.3125.3125.3125.8125v10.89063q0 .48437-.3125.8125-.3125.32812-.82812.32812z" fill="#fff"/><path d="m353.36484 50.72179h147.62204v43.81102h-147.62204z" fill="none"/><path d="m377.6129 82.99615q-1.9375 0-3.64062-.71875-1.6875-.73438-2.95313-2.04688-1.25-1.32812-1.96875-3.07812-.71875-1.76563-.71875-3.78125 0-1.98438.70313-3.71875.70312-1.75 1.96875-3.0625 1.28125-1.32813 2.95312-2.0625 1.6875-.75 3.65625-.75 1.82813 0 3.1875.5 1.35938.48437 2.70313 1.59375.1875.14062.26562.32812.0937.17188.0781.34375-.0156.15625-.0625.35938-.0312.35937-.3125.59375-.26563.21875-.67188.25-.39062.0156-.75-.26563-.90625-.79687-1.90625-1.20312-.98437-.40625-2.53125-.40625-1.45312 0-2.75.59375-1.28125.59375-2.25 1.64062-.96875 1.03125-1.53125 2.39063-.54687 1.34375-.54687 2.875 0 1.5625.54687 2.9375.5625 1.35937 1.53125 2.39062.96875 1.03125 2.25 1.60938 1.29688.57812 2.75.57812 1.28125 0 2.39063-.42187 1.10937-.42188 2.15625-1.1875.375-.28125.75-.25.39062.0312.67187.3125.28125.28125.28125.76562 0 .23438-.0937.4375-.0781.20313-.26562.375-1.28125 1.07813-2.76563 1.57813-1.48437.5-3.125.5zm14.95242-.14063q-1.92187 0-3.42187-.84375-1.5-.85937-2.35938-2.35937-.84375-1.5-.84375-3.4375 0-1.96875.84375-3.46875.85938-1.5 2.35938-2.34375 1.5-.85938 3.42187-.85938 1.92188 0 3.40625.85938 1.5.84375 2.35938 2.34375.85937 1.5.85937 3.46875 0 1.9375-.85937 3.4375-.84375 1.5-2.32813 2.35937-1.48437.84375-3.4375.84375zm0-1.98437q1.29688 0 2.29688-.59375 1.01562-.60938 1.59375-1.65625.57812-1.04688.57812-2.40625 0-1.375-.57812-2.42188-.57813-1.0625-1.59375-1.65625-1-.60937-2.29688-.60937-1.29687 0-2.3125.60937-1 .59375-1.57812 1.65625-.57813 1.04688-.57813 2.42188 0 1.35937.57813 2.40625.57812 1.04687 1.57812 1.65625 1.01563.59375 2.3125.59375zm15.8646 2.01562q-1.67188 0-3-.70312-1.3125-.71875-2.09375-2.07813-.76563-1.375-.76563-3.34375v-6.03125q0-.46875.32813-.79687.32812-.32813.8125-.32813.46875 0 .79687.32813.32813.32812.32813.79687v6.03125q0 1.39063.51562 2.29688.53125.89062 1.4375 1.34375.90625.4375 2.03125.4375 1.07813 0 1.92188-.42188.85937-.4375 1.35937-1.15625.5-.71875.5-1.64062h1.45313q-.0312 1.5-.78125 2.70312-.73438 1.1875-2 1.875-1.25.6875-2.84375.6875zm5.28125-.125q-.48438 0-.79688-.3125-.3125-.3125-.3125-.8125v-10.90625q0-.5.3125-.8125.3125-.3125.79688-.3125.5 0 .8125.3125.3125.3125.3125.8125v10.90625q0 .5-.3125.8125-.3125.3125-.8125.3125zm6.56994 5.60938q-.5 0-.8125-.3125-.3125-.3125-.3125-.8125v-11.0625q.0312-1.89063.90625-3.40625.875-1.51563 2.35938-2.375 1.48437-.85938 3.34375-.85938 1.92187 0 3.42187.875 1.5.875 2.375 2.375.875 1.5.875 3.42188 0 1.89062-.82812 3.40625-.82813 1.51562-2.25 2.375-1.42188.85937-3.1875.85937-1.48438 0-2.71875-.60937-1.21875-.60938-2.03125-1.67188v6.67188q0 .5-.3125.8125-.3125.3125-.82813.3125zm5.5-7.5q1.28125 0 2.28125-.60938 1.01563-.625 1.59375-1.67187.59375-1.0625.59375-2.375 0-1.34375-.59375-2.40625-.57812-1.0625-1.59375-1.67188-1-.60937-2.28125-.60937-1.26562 0-2.28125.60937-1 .60938-1.57812 1.67188-.57813 1.0625-.57813 2.40625 0 1.3125.57813 2.39062.57812 1.0625 1.57812 1.67188 1.01563.59375 2.28125.59375zm13.30219 1.89062q-1.03125 0-1.82813-.5625-.79687-.5625-1.23437-1.53125-.4375-.98437-.4375-2.25v-13.29687q0-.5.29687-.79688.29688-.3125.79688-.3125.5 0 .79687.3125.3125.29688.3125.79688v13.29687q0 .9375.35938 1.54688.35937.59375.9375.59375h.59375q.45312 0 .71875.29687.26562.29688.26562.79688 0 .51562-.40625.8125-.40625.29687-1.03125.29687zm8.88287.0937q-1.78125 0-3.20312-.85937-1.40625-.85938-2.23438-2.375-.8125-1.51563-.8125-3.40625 0-1.92188.875-3.42188.875-1.5 2.375-2.375 1.5-.875 3.375-.875 1.90625 0 3.39063.875 1.48437.875 2.35937 2.39063.875 1.5.875 3.40625l-.85937.1875q0 1.82812-.8125 3.29687-.79688 1.45313-2.1875 2.3125-1.375.84375-3.14063.84375zm.375-1.98437q1.29688 0 2.29688-.60938 1-.625 1.57812-1.67187.59375-1.0625.59375-2.375 0-1.34375-.59375-2.40625-.57812-1.0625-1.57812-1.67188-1-.60937-2.29688-.60937-1.25 0-2.26562.60937-1.01563.60938-1.60938 1.67188-.59375 1.0625-.59375 2.40625 0 1.3125.59375 2.375.59375 1.04687 1.60938 1.67187 1.01562.60938 2.26562.60938zm5.5 1.92187q-.48437 0-.8125-.32812-.3125-.32813-.3125-.8125v-3.8125l.45313-2.32813 1.79687.70313v5.4375q0 .48437-.3125.8125-.3125.32812-.8125.32812zm10.34894.0625q-1.82813 0-3.23438-.84375-1.40625-.85937-2.21875-2.35937-.79687-1.5-.79687-3.4375 0-1.96875.84375-3.46875.85937-1.5 2.35937-2.34375 1.5-.85938 3.42188-.85938 1.95312 0 3.4375.85938 1.48437.84375 2.32812 2.34375.85938 1.5.85938 3.46875l-1.29688.1875q0 1.89062-.73437 3.34375-.73438 1.45312-2.01563 2.28125-1.28125.82812-2.95312.82812zm.375 5.26563q-1.76563 0-3.25-.6875-1.46875-.6875-2.45313-1.95313-.3125-.35937-.25-.76562.0781-.39063.4375-.65625.375-.26563.8125-.17188.45313.0937.71875.4375.67188.84375 1.6875 1.3125 1.03125.48438 2.32813.48438 1.21875 0 2.21875-.59375 1.01562-.57813 1.60937-1.6875.60938-1.10938.60938-2.6875v-3.48438l.73437-1.85937 1.42188.40625v5.07812q0 1.92188-.84375 3.46875-.82813 1.54688-2.32813 2.45313-1.5.90625-3.45312.90625zm0-7.25q1.32812 0 2.3125-.59375 1-.60938 1.57812-1.65625.57813-1.04688.57813-2.40625 0-1.375-.57813-2.42188-.57812-1.0625-1.57812-1.65625-.98438-.60937-2.3125-.60937-1.29688 0-2.3125.60937-1 .59375-1.57813 1.65625-.57812 1.04688-.57812 2.42188 0 1.35937.57812 2.40625.57813 1.04687 1.57813 1.65625 1.01562.59375 2.3125.59375zm16.36456 1.98437q-1.96875 0-3.5-.84375-1.53125-.85937-2.40625-2.35937-.85937-1.5-.85937-3.4375 0-1.96875.8125-3.46875.82812-1.5 2.28125-2.34375 1.45312-.85938 3.3125-.85938 1.85937 0 3.20312.82813 1.35938.82812 2.07813 2.28125.71875 1.45312.71875 3.34375 0 .42187-.29688.70312-.28125.28125-.73437.28125h-9.82813v-1.79687h9.85938l-1.01563.6875q0-1.26563-.48437-2.26563-.46875-1-1.35938-1.5625-.89062-.57812-2.14062-.57812-1.35938 0-2.35938.60937-1 .60938-1.51562 1.6875-.51563 1.07813-.51563 2.45313 0 1.35937.60938 2.4375.625 1.0625 1.6875 1.67187 1.0625.60938 2.45312.60938.79688 0 1.59375-.28125.8125-.29688 1.3125-.67188.34375-.25.71875-.25.39063-.0156.67188.21875.39062.34375.40625.73438.0312.39062-.35938.6875-.78125.64062-2.01562 1.0625-1.21875.42187-2.32813.42187z" fill="#000"/></svg>